<svg width="209" height="28" viewBox="0 0 209 28" fill="none" xmlns="http://www.w3.org/2000/svg">
<path d="M5.924 2.372C8.836 2.372 11.0667 2.89467 12.616 3.94C14.1653 4.96667 14.94 6.572 14.94 8.756C14.94 10.1187 14.6227 11.2293 13.988 12.088C13.372 12.928 12.476 13.5907 11.3 14.076C11.692 14.5613 12.1027 15.1213 12.532 15.756C12.9613 16.372 13.3813 17.0253 13.792 17.716C14.2213 18.388 14.632 19.0973 15.024 19.844C15.416 20.572 15.78 21.2907 16.116 22H11.216C10.8613 21.3653 10.4973 20.7213 10.124 20.068C9.76933 19.4147 9.396 18.78 9.004 18.164C8.63067 17.548 8.25733 16.9693 7.884 16.428C7.51067 15.868 7.13733 15.364 6.764 14.916H4.608V22H0.24V2.876C1.192 2.68933 2.172 2.55867 3.18 2.484C4.20667 2.40933 5.12133 2.372 5.924 2.372ZM6.176 6.096C5.85867 6.096 5.56933 6.10533 5.308 6.124C5.06533 6.14267 4.832 6.16133 4.608 6.18V11.444H5.84C7.48267 11.444 8.65867 11.2387 9.368 10.828C10.0773 10.4173 10.432 9.71733 10.432 8.728C10.432 7.776 10.068 7.104 9.34 6.712C8.63067 6.30133 7.576 6.096 6.176 6.096ZM31.7008 14.608C31.7008 15.7653 31.5328 16.8293 31.1968 17.8C30.8608 18.752 30.3755 19.5733 29.7408 20.264C29.1062 20.936 28.3408 21.4587 27.4448 21.832C26.5675 22.2053 25.5782 22.392 24.4768 22.392C23.3942 22.392 22.4048 22.2053 21.5088 21.832C20.6315 21.4587 19.8755 20.936 19.2408 20.264C18.6062 19.5733 18.1115 18.752 17.7568 17.8C17.4022 16.8293 17.2248 15.7653 17.2248 14.608C17.2248 13.4507 17.4022 12.396 17.7568 11.444C18.1302 10.492 18.6342 9.68 19.2688 9.008C19.9222 8.336 20.6875 7.81333 21.5648 7.44C22.4608 7.06667 23.4315 6.88 24.4768 6.88C25.5408 6.88 26.5115 7.06667 27.3888 7.44C28.2848 7.81333 29.0502 8.336 29.6848 9.008C30.3195 9.68 30.8142 10.492 31.1688 11.444C31.5235 12.396 31.7008 13.4507 31.7008 14.608ZM27.4448 14.608C27.4448 13.32 27.1835 12.312 26.6608 11.584C26.1568 10.8373 25.4288 10.464 24.4768 10.464C23.5248 10.464 22.7875 10.8373 22.2648 11.584C21.7422 12.312 21.4808 13.32 21.4808 14.608C21.4808 15.896 21.7422 16.9227 22.2648 17.688C22.7875 18.4347 23.5248 18.808 24.4768 18.808C25.4288 18.808 26.1568 18.4347 26.6608 17.688C27.1835 16.9227 27.4448 15.896 27.4448 14.608ZM45.7192 10.072C45.3832 10.4453 44.9259 10.9493 44.3472 11.584C43.7872 12.2187 43.1806 12.9187 42.5272 13.684C41.8739 14.4493 41.2112 15.252 40.5392 16.092C39.8859 16.932 39.2886 17.744 38.7472 18.528H45.8592V22H33.6792V19.536C34.0712 18.864 34.5379 18.1453 35.0792 17.38C35.6392 16.596 36.2179 15.812 36.8152 15.028C37.4312 14.244 38.0379 13.488 38.6352 12.76C39.2326 12.0133 39.7832 11.3413 40.2872 10.744H34.0152V7.272H45.7192V10.072ZM62.2548 7.272C61.4148 10.1093 60.5374 12.7693 59.6228 15.252C58.7081 17.7347 57.7094 20.1427 56.6268 22.476C56.2348 23.316 55.8428 24.0253 55.4507 24.604C55.0588 25.2013 54.6294 25.6867 54.1628 26.06C53.6961 26.452 53.1641 26.732 52.5668 26.9C51.9881 27.0867 51.3068 27.18 50.5228 27.18C49.8694 27.18 49.2628 27.1147 48.7028 26.984C48.1614 26.872 47.7134 26.7413 47.3588 26.592L48.0868 23.26C48.5161 23.4093 48.8988 23.512 49.2348 23.568C49.5708 23.624 49.9254 23.652 50.2988 23.652C51.0454 23.652 51.6148 23.4467 52.0068 23.036C52.4174 22.644 52.7628 22.0933 53.0428 21.384C52.0908 19.5173 51.1388 17.4267 50.1868 15.112C49.2348 12.7787 48.3388 10.1653 47.4988 7.272H51.9228C52.1094 8 52.3241 8.79333 52.5668 9.652C52.8281 10.492 53.0988 11.3507 53.3788 12.228C53.6588 13.0867 53.9388 13.9267 54.2188 14.748C54.5174 15.5693 54.7974 16.316 55.0588 16.988C55.3014 16.316 55.5534 15.5693 55.8148 14.748C56.0761 13.9267 56.3281 13.0867 56.5708 12.228C56.8321 11.3507 57.0748 10.492 57.2988 9.652C57.5414 8.79333 57.7561 8 57.9428 7.272H62.2548ZM71.4978 22V2.596H84.6018V6.264H75.8658V10.072H83.6218V13.656H75.8658V18.332H85.2458V22H71.4978ZM94.0783 22.28C92.8649 22.2613 91.8756 22.1307 91.1103 21.888C90.3636 21.6453 89.7663 21.3093 89.3183 20.88C88.8889 20.432 88.5903 19.9 88.4223 19.284C88.2729 18.6493 88.1983 17.94 88.1983 17.156V0.943999L92.3703 0.271999V16.316C92.3703 16.6893 92.3983 17.0253 92.4543 17.324C92.5103 17.6227 92.6129 17.8747 92.7623 18.08C92.9303 18.2853 93.1636 18.4533 93.4623 18.584C93.7609 18.7147 94.1623 18.7987 94.6663 18.836L94.0783 22.28ZM96.3577 14.748C96.3577 13.4413 96.5537 12.3027 96.9457 11.332C97.3563 10.3427 97.8883 9.52133 98.5417 8.868C99.195 8.21467 99.9417 7.72 100.782 7.384C101.64 7.048 102.518 6.88 103.414 6.88C105.504 6.88 107.156 7.524 108.37 8.812C109.583 10.0813 110.19 11.9573 110.19 14.44C110.19 14.6827 110.18 14.9533 110.162 15.252C110.143 15.532 110.124 15.784 110.106 16.008H100.642C100.735 16.8667 101.136 17.548 101.846 18.052C102.555 18.556 103.507 18.808 104.702 18.808C105.467 18.808 106.214 18.7427 106.942 18.612C107.688 18.4627 108.295 18.2853 108.762 18.08L109.322 21.468C109.098 21.58 108.799 21.692 108.426 21.804C108.052 21.916 107.632 22.0093 107.166 22.084C106.718 22.1773 106.232 22.252 105.71 22.308C105.187 22.364 104.664 22.392 104.142 22.392C102.816 22.392 101.659 22.196 100.67 21.804C99.699 21.412 98.887 20.88 98.2337 20.208C97.599 19.5173 97.123 18.7053 96.8057 17.772C96.507 16.8387 96.3577 15.8307 96.3577 14.748ZM106.158 13.152C106.139 12.7973 106.074 12.452 105.962 12.116C105.868 11.78 105.71 11.4813 105.486 11.22C105.28 10.9587 105.01 10.744 104.674 10.576C104.356 10.408 103.955 10.324 103.47 10.324C103.003 10.324 102.602 10.408 102.266 10.576C101.93 10.7253 101.65 10.9307 101.426 11.192C101.202 11.4533 101.024 11.7613 100.894 12.116C100.782 12.452 100.698 12.7973 100.642 13.152H106.158ZM117.581 12.592C117.992 12.144 118.412 11.6773 118.841 11.192C119.289 10.7067 119.719 10.2307 120.129 9.764C120.54 9.27867 120.923 8.82133 121.277 8.392C121.651 7.96267 121.968 7.58933 122.229 7.272H127.185C126.196 8.41067 125.225 9.50267 124.273 10.548C123.34 11.5747 122.313 12.6387 121.193 13.74C121.753 14.244 122.332 14.8507 122.929 15.56C123.527 16.2507 124.105 16.9693 124.665 17.716C125.225 18.4627 125.739 19.2093 126.205 19.956C126.672 20.7027 127.064 21.384 127.381 22H122.593C122.295 21.5147 121.949 20.9827 121.557 20.404C121.184 19.8067 120.783 19.2187 120.353 18.64C119.924 18.0427 119.467 17.4733 118.981 16.932C118.515 16.3907 118.048 15.9333 117.581 15.56V22H113.409V0.943999L117.581 0.271999V12.592ZM129.265 3.604L133.437 2.932V7.272H138.449V10.744H133.437V15.924C133.437 16.8013 133.587 17.5013 133.885 18.024C134.203 18.5467 134.828 18.808 135.761 18.808C136.209 18.808 136.667 18.7707 137.133 18.696C137.619 18.6027 138.057 18.4813 138.449 18.332L139.037 21.58C138.533 21.7853 137.973 21.9627 137.357 22.112C136.741 22.2613 135.985 22.336 135.089 22.336C133.951 22.336 133.008 22.1867 132.261 21.888C131.515 21.5707 130.917 21.1413 130.469 20.6C130.021 20.04 129.704 19.368 129.517 18.584C129.349 17.8 129.265 16.932 129.265 15.98V3.604ZM150.723 10.968C150.349 10.8747 149.911 10.7813 149.407 10.688C148.903 10.576 148.361 10.52 147.783 10.52C147.521 10.52 147.204 10.548 146.831 10.604C146.476 10.6413 146.205 10.688 146.019 10.744V22H141.847V8.056C142.593 7.79467 143.471 7.552 144.479 7.328C145.505 7.08533 146.644 6.964 147.895 6.964C148.119 6.964 148.389 6.98267 148.707 7.02C149.024 7.03867 149.341 7.076 149.659 7.132C149.976 7.16933 150.293 7.22533 150.611 7.3C150.928 7.356 151.199 7.43067 151.423 7.524L150.723 10.968ZM167.162 14.608C167.162 15.7653 166.994 16.8293 166.658 17.8C166.322 18.752 165.836 19.5733 165.202 20.264C164.567 20.936 163.802 21.4587 162.906 21.832C162.028 22.2053 161.039 22.392 159.938 22.392C158.855 22.392 157.866 22.2053 156.97 21.832C156.092 21.4587 155.336 20.936 154.702 20.264C154.067 19.5733 153.572 18.752 153.218 17.8C152.863 16.8293 152.686 15.7653 152.686 14.608C152.686 13.4507 152.863 12.396 153.218 11.444C153.591 10.492 154.095 9.68 154.73 9.008C155.383 8.336 156.148 7.81333 157.026 7.44C157.922 7.06667 158.892 6.88 159.938 6.88C161.002 6.88 161.972 7.06667 162.85 7.44C163.746 7.81333 164.511 8.336 165.146 9.008C165.78 9.68 166.275 10.492 166.63 11.444C166.984 12.396 167.162 13.4507 167.162 14.608ZM162.906 14.608C162.906 13.32 162.644 12.312 162.122 11.584C161.618 10.8373 160.89 10.464 159.938 10.464C158.986 10.464 158.248 10.8373 157.726 11.584C157.203 12.312 156.942 13.32 156.942 14.608C156.942 15.896 157.203 16.9227 157.726 17.688C158.248 18.4347 158.986 18.808 159.938 18.808C160.89 18.808 161.618 18.4347 162.122 17.688C162.644 16.9227 162.906 15.896 162.906 14.608ZM170.394 7.776C171.103 7.57067 172.018 7.384 173.138 7.216C174.258 7.02933 175.434 6.936 176.666 6.936C177.916 6.936 178.952 7.104 179.774 7.44C180.614 7.75733 181.276 8.21467 181.762 8.812C182.247 9.40933 182.592 10.1187 182.798 10.94C183.003 11.7613 183.106 12.676 183.106 13.684V22H178.934V14.188C178.934 12.844 178.756 11.892 178.402 11.332C178.047 10.772 177.384 10.492 176.414 10.492C176.115 10.492 175.798 10.5107 175.462 10.548C175.126 10.5667 174.827 10.5947 174.566 10.632V22H170.394V7.776ZM191.054 22H186.882V7.272H191.054V22ZM191.446 3.016C191.446 3.78133 191.194 4.388 190.69 4.836C190.205 5.26533 189.626 5.48 188.954 5.48C188.282 5.48 187.694 5.26533 187.19 4.836C186.705 4.388 186.462 3.78133 186.462 3.016C186.462 2.25067 186.705 1.65333 187.19 1.224C187.694 0.775999 188.282 0.551999 188.954 0.551999C189.626 0.551999 190.205 0.775999 190.69 1.224C191.194 1.65333 191.446 2.25067 191.446 3.016ZM199.148 12.592C199.558 12.144 199.978 11.6773 200.408 11.192C200.856 10.7067 201.285 10.2307 201.696 9.764C202.106 9.27867 202.489 8.82133 202.844 8.392C203.217 7.96267 203.534 7.58933 203.796 7.272H208.752C207.762 8.41067 206.792 9.50267 205.84 10.548C204.906 11.5747 203.88 12.6387 202.76 13.74C203.32 14.244 203.898 14.8507 204.496 15.56C205.093 16.2507 205.672 16.9693 206.232 17.716C206.792 18.4627 207.305 19.2093 207.772 19.956C208.238 20.7027 208.63 21.384 208.948 22H204.16C203.861 21.5147 203.516 20.9827 203.124 20.404C202.75 19.8067 202.349 19.2187 201.92 18.64C201.49 18.0427 201.033 17.4733 200.548 16.932C200.081 16.3907 199.614 15.9333 199.148 15.56V22H194.976V0.943999L199.148 0.271999V12.592Z" fill="black"/>
</svg>
