<svg width="54" height="80" viewBox="0 0 54 80" fill="none" xmlns="http://www.w3.org/2000/svg">
<g clip-path="url(#clip0_72_2)">
<path d="M27 0C11.8366 0 -0.499512 12.3361 -0.499512 27.4995C-0.499512 42.663 11.8366 54.9991 27 54.9991C42.1634 54.9991 54.4996 42.663 54.4996 27.4995C54.4996 12.3361 42.1634 0 27 0ZM27 53.7491C12.5259 53.7491 0.75041 41.9736 0.75041 27.4995C0.75041 13.0254 12.5259 1.24992 27 1.24992C41.4741 1.24992 53.2496 13.0254 53.2496 27.4995C53.2496 41.9736 41.4741 53.7491 27 53.7491Z" fill="white"/>
<path d="M27 22.4592C24.2208 22.4592 21.959 24.7203 21.959 27.5002C21.959 30.28 24.2202 32.5411 27 32.5411C29.7798 32.5411 32.0409 30.28 32.0409 27.5002C32.0409 24.7203 29.7792 22.4592 27 22.4592ZM27 31.2906C24.9095 31.2906 23.209 29.5894 23.209 27.4995C23.209 25.4097 24.9095 23.7085 27 23.7085C29.0905 23.7085 30.791 25.4097 30.791 27.4995C30.791 29.5894 29.0905 31.2906 27 31.2906Z" fill="white"/>
<path d="M26.9994 10.0594C24.2202 10.0594 21.9584 12.3211 21.9584 15.1009C21.9584 16.309 22.8815 19.1951 24.702 23.6798C24.8001 23.9229 25.0345 24.0698 25.2814 24.0698C25.3595 24.0698 25.4395 24.0548 25.5157 24.0241C25.8357 23.8942 25.9901 23.5298 25.8601 23.2098C23.5527 17.5258 23.2084 15.689 23.2084 15.1009C23.2084 13.0105 24.9089 11.3093 26.9994 11.3093C29.0899 11.3093 30.7904 13.0098 30.7904 15.1009C30.7904 15.6915 30.4454 17.5295 28.1387 23.2086C28.0087 23.5285 28.1624 23.8929 28.4824 24.0229C28.803 24.1516 29.1667 23.9985 29.2967 23.6785C31.1172 19.1976 32.0403 16.3121 32.0403 15.1009C32.0403 12.3211 29.7786 10.0594 26.9994 10.0594Z" fill="white"/>
<path d="M40.006 30.73C39.0286 30.02 36.1513 29.0707 31.4534 27.9076C31.1185 27.8251 30.7791 28.0289 30.6966 28.3639C30.6135 28.6988 30.8179 29.0376 31.1528 29.1207C37.1062 30.5943 38.7949 31.3949 39.2711 31.7405C40.9622 32.9704 41.3385 35.3459 40.1098 37.0371C38.8805 38.7276 36.5044 39.1057 34.8132 37.8758C34.3458 37.5364 33.0883 36.2096 29.9217 31.1399C29.7386 30.8487 29.353 30.7581 29.0605 30.9418C28.768 31.1243 28.6792 31.5099 28.8617 31.803C31.3622 35.8059 33.1177 38.1901 34.0789 38.8876C34.9714 39.5363 36.0075 39.8488 37.035 39.8488C38.5949 39.8488 40.1348 39.1288 41.1216 37.7726C42.7552 35.524 42.2553 32.3649 40.006 30.73Z" fill="white"/>
<path d="M25.0482 30.7643C24.7551 30.5812 24.3701 30.6706 24.1877 30.9643C20.9466 36.1721 19.6636 37.5302 19.1867 37.8764C17.4949 39.1044 15.1201 38.7282 13.8908 37.0371C12.6621 35.3459 13.0384 32.9704 14.7295 31.7411C15.2063 31.3949 16.8956 30.5937 22.8484 29.1207C23.1833 29.0376 23.3877 28.6988 23.3046 28.3638C23.2215 28.0289 22.8809 27.8245 22.5478 27.9076C17.8506 29.0707 14.9726 30.02 13.9945 30.7306C11.7459 32.3655 11.2453 35.524 12.879 37.7726C13.8652 39.1288 15.4045 39.8488 16.965 39.8488C17.9924 39.8488 19.0292 39.5363 19.921 38.8876C20.8985 38.177 22.6915 35.734 25.2488 31.6249C25.4307 31.3318 25.3413 30.9462 25.0482 30.7643Z" fill="white"/>
<path d="M17.0006 51.8768C16.6557 51.8768 16.3757 52.1561 16.3757 52.5017V75.0003C16.3757 75.3459 16.6557 75.6253 17.0006 75.6253C17.3456 75.6253 17.6256 75.3459 17.6256 75.0003V52.5017C17.6256 52.1561 17.3456 51.8768 17.0006 51.8768Z" fill="white"/>
<path d="M36.9994 51.8768C36.6544 51.8768 36.3744 52.1561 36.3744 52.5017V75.0003C36.3744 75.3459 36.6544 75.6253 36.9994 75.6253C37.3443 75.6253 37.6243 75.3459 37.6243 75.0003V52.5017C37.6243 52.1561 37.3443 51.8768 36.9994 51.8768Z" fill="white"/>
<path d="M43.9383 10.0275C43.6909 9.7869 43.2946 9.79315 43.0546 10.0406C42.814 10.2881 42.8203 10.6843 43.0678 10.9243C47.5931 15.3116 50.0855 21.1987 50.0855 27.5002C50.0855 40.2294 39.7299 50.5856 27 50.5856C14.2702 50.5856 3.91459 40.2287 3.91459 27.4995C3.91459 14.7703 14.2702 4.41411 27 4.41411C31.1441 4.41411 35.2083 5.52466 38.7543 7.62641C39.0511 7.80202 39.4342 7.70453 39.6105 7.40704C39.7861 7.11081 39.688 6.72646 39.3911 6.55085C35.6532 4.33536 31.3685 3.16418 27 3.16418C13.5815 3.16418 2.66467 14.0816 2.66467 27.5002C2.66467 40.9187 13.5815 51.8355 27 51.8355C40.4186 51.8355 51.3354 40.9187 51.336 27.5008C51.336 20.8581 48.7087 14.6522 43.9383 10.0275Z" fill="white"/>
<path d="M43.2584 74.3754H10.741C9.02363 74.3754 7.62622 75.7746 7.62622 77.4952V79.375C7.62622 79.7206 7.9062 80 8.25118 80H45.7488C46.0938 80 46.3738 79.7206 46.3732 79.375V77.4952C46.3732 75.7746 44.9764 74.3754 43.2584 74.3754ZM45.1239 78.7501H8.87614V77.4952C8.87614 76.4646 9.71234 75.6253 10.741 75.6253H43.259C44.2871 75.6253 45.1239 76.4646 45.1239 77.4952V78.7501Z" fill="white"/>
<path d="M28.9042 67.5251C28.5593 67.5251 28.2793 67.8045 28.2793 68.1501C28.2793 68.8557 27.7056 69.4294 27 69.4294C26.2944 69.4294 25.7207 68.8557 25.7207 68.1501C25.7207 67.8045 25.4407 67.5251 25.0957 67.5251C24.7507 67.5251 24.4708 67.8045 24.4708 68.1501C24.4708 69.545 25.6057 70.6793 27 70.6793C28.3943 70.6793 29.5292 69.545 29.5292 68.1501C29.5292 67.8045 29.2492 67.5251 28.9042 67.5251Z" fill="white"/>
<path d="M27 58.7988C25.6051 58.7988 24.4708 59.9331 24.4708 61.328C24.4708 62.723 25.6057 63.8573 27 63.8573C28.3943 63.8573 29.5292 62.723 29.5292 61.328C29.5292 59.9331 28.3949 58.7988 27 58.7988ZM27 62.6073C26.2944 62.6073 25.7207 62.0336 25.7207 61.328C25.7207 60.6225 26.295 60.0488 27 60.0488C27.7049 60.0488 28.2793 60.6225 28.2793 61.328C28.2793 62.0336 27.7056 62.6073 27 62.6073Z" fill="white"/>
<path d="M25.1251 60.6262C24.7802 60.6262 24.5002 60.9056 24.5002 61.2512V68.1258C24.5002 68.4714 24.7802 68.7507 25.1251 68.7507C25.4701 68.7507 25.7501 68.4714 25.7501 68.1258V61.2512C25.7501 60.9056 25.4701 60.6262 25.1251 60.6262Z" fill="white"/>
<path d="M28.8749 60.6262C28.5299 60.6262 28.2499 60.9056 28.2499 61.2512V68.1258C28.2499 68.4714 28.5299 68.7507 28.8749 68.7507C29.2199 68.7507 29.4999 68.4714 29.4999 68.1258V61.2512C29.4999 60.9056 29.2199 60.6262 28.8749 60.6262Z" fill="white"/>
<path d="M28.213 26.8752C27.8681 26.8752 27.5881 27.1545 27.5881 27.5001C27.5881 27.8245 27.3244 28.0882 27 28.0882C26.6756 28.0882 26.4119 27.8245 26.4119 27.5001C26.4119 27.1758 26.6756 26.9121 27 26.9121C27.345 26.9121 27.625 26.6327 27.625 26.2871C27.625 25.9415 27.345 25.6621 27 25.6621C25.9863 25.6621 25.162 26.4865 25.162 27.5001C25.162 28.5138 25.9863 29.3382 27 29.3382C28.0137 29.3382 28.838 28.5132 28.838 27.5001C28.838 27.1545 28.558 26.8752 28.213 26.8752Z" fill="white"/>
</g>
<defs>
<clipPath id="clip0_72_2">
<rect width="54" height="80" fill="white"/>
</clipPath>
</defs>
</svg>
