<svg width="64" height="73" viewBox="0 0 64 73" fill="none" xmlns="http://www.w3.org/2000/svg">
<g clip-path="url(#clip0_52_321)">
<path d="M58.25 1.35001H5.75C3.67893 1.35001 2 3.02894 2 5.10001V66.9C2 68.9711 3.67893 70.65 5.75 70.65H58.25C60.3211 70.65 62 68.9711 62 66.9V5.10001C62 3.02894 60.3211 1.35001 58.25 1.35001Z" stroke="white" stroke-width="3" stroke-miterlimit="10"/>
<path d="M5.75 1.35001H58.25C59.2446 1.35001 60.1984 1.74509 60.9016 2.44836C61.6049 3.15162 62 4.10544 62 5.10001V22.6H2V5.10001C2 4.10544 2.39509 3.15162 3.09835 2.44836C3.80161 1.74509 4.75544 1.35001 5.75 1.35001Z" stroke="white" stroke-width="3" stroke-linecap="round" stroke-linejoin="round"/>
<path d="M32 63.325C41.237 63.325 48.725 55.837 48.725 46.6C48.725 37.363 41.237 29.875 32 29.875C22.7631 29.875 15.275 37.363 15.275 46.6C15.275 55.837 22.7631 63.325 32 63.325Z" stroke="white" stroke-width="3" stroke-miterlimit="10"/>
<path d="M28.15 11.95H10.2875" stroke="white" stroke-width="3" stroke-linecap="round" stroke-linejoin="round"/>
<path d="M52.9875 14.6125C54.458 14.6125 55.65 13.4205 55.65 11.95C55.65 10.4795 54.458 9.28751 52.9875 9.28751C51.5171 9.28751 50.325 10.4795 50.325 11.95C50.325 13.4205 51.5171 14.6125 52.9875 14.6125Z" fill="white"/>
<path d="M45.4875 14.6125C46.958 14.6125 48.15 13.4205 48.15 11.95C48.15 10.4795 46.958 9.28751 45.4875 9.28751C44.0171 9.28751 42.825 10.4795 42.825 11.95C42.825 13.4205 44.0171 14.6125 45.4875 14.6125Z" fill="white"/>
<path d="M37.9875 14.6125C39.458 14.6125 40.65 13.4205 40.65 11.95C40.65 10.4795 39.458 9.28751 37.9875 9.28751C36.5171 9.28751 35.325 10.4795 35.325 11.95C35.325 13.4205 36.5171 14.6125 37.9875 14.6125Z" fill="white"/>
<path d="M48.725 46.6H39.7125" stroke="white" stroke-width="3" stroke-linecap="round" stroke-linejoin="round"/>
</g>
<defs>
<clipPath id="clip0_52_321">
<rect width="64" height="73" fill="white"/>
</clipPath>
</defs>
</svg>
