<svg width="78" height="72" viewBox="0 0 78 72" fill="none" xmlns="http://www.w3.org/2000/svg">
<g clip-path="url(#clip0_52_369)">
<path d="M11.6203 -0.189345C9.55093 -0.189345 7.84872 1.5202 7.84871 3.58961V5.06379C6.38883 5.58764 5.33265 6.9938 5.33265 8.62417C5.33267 10.6937 7.03235 12.3933 9.10181 12.3933H12.2518V14.5677L11.2026 17.2238C10.2311 19.691 9.73329 22.3268 9.73328 24.9784V30.0007H7.21723V26.2316C7.21725 24.1621 5.50771 22.4599 3.43825 22.4599C1.36878 22.4599 -0.333388 24.1621 -0.333374 26.2316V48.8712C-0.333388 50.9406 1.36878 52.6525 3.43825 52.6525C5.50771 52.6525 7.21725 50.9406 7.21723 48.8712V45.1019H9.73328V53.9057C9.7333 55.9752 11.4354 57.6847 13.5049 57.6847H14.7678V61.4562C14.7678 62.166 14.2146 62.7192 13.5049 62.7192H3.43825C1.36878 62.7192 -0.333388 64.4189 -0.333374 66.4884V67.7415C-0.333388 69.8109 1.36878 71.5229 3.43825 71.5229H73.895C75.9645 71.5229 77.6666 69.8109 77.6666 67.7415V66.4884C77.6666 64.4189 75.9645 62.7192 73.895 62.7192H63.8284C63.1187 62.7192 62.5654 62.166 62.5654 61.4562V57.1195C66.2443 56.1334 69.1069 53.129 69.8973 49.3821H71.379C73.4484 49.3821 75.1481 47.6726 75.1481 45.6032V31.7649C75.1481 29.6954 73.4484 27.9957 71.379 27.9957H69.9416C69.1647 23.8867 65.8495 20.6629 61.7054 20.0151C60.6888 19.836 59.6799 19.9021 58.6095 19.9168C57.0144 19.9357 55.6563 21.0075 55.1942 22.4599H43.695V19.9438C45.0697 19.9438 46.2111 18.8025 46.2111 17.4279V14.9118C46.2111 13.5372 45.0697 12.3933 43.695 12.3933H31.1222C29.7475 12.3933 28.6037 13.5372 28.6037 14.9118V17.4279C28.6037 18.8025 29.7475 19.9438 31.1222 19.9438V22.4598H22.1563C21.9407 20.67 21.4954 18.9113 20.8221 17.2311L19.7926 14.6782V12.3932H22.9401C25.0096 12.3932 26.7191 10.6935 26.7191 8.62394C26.7191 6.99629 25.6616 5.59202 24.203 5.0661V3.58938C24.203 1.51997 22.4934 -0.189575 20.424 -0.189575L11.6203 -0.189345ZM11.6203 2.32661H20.424C21.1337 2.32661 21.687 2.87996 21.687 3.58961V4.84522H10.3574V3.58961C10.3574 2.87996 10.9107 2.32661 11.6203 2.32661ZM22.9401 7.36118C23.6498 7.36118 24.203 7.91449 24.203 8.62417C24.203 9.33385 23.6498 9.87728 22.9401 9.87725H9.1018C8.39211 9.87725 7.8487 9.33389 7.8487 8.62417C7.8487 7.93664 8.35833 7.39432 9.03546 7.36118H22.9401ZM14.7678 12.4031H17.2839V14.9192C17.281 15.0813 17.3091 15.242 17.3674 15.3932L18.483 18.16C19.3507 20.3253 19.7926 22.6455 19.7926 24.9783V53.9055C19.7926 54.6152 19.2467 55.1685 18.537 55.1685H13.5049C12.7952 55.1685 12.2518 54.6152 12.2518 53.9055V24.9783C12.2518 22.6422 12.6859 20.3261 13.5418 18.1526L14.6745 15.2728C14.7347 15.1254 14.7664 14.9674 14.7679 14.8082L14.7678 12.4031ZM31.1222 14.9118H43.695V17.4279H42.4419H32.3753H31.1222V14.9118ZM33.6382 19.9438H41.179V24.9784H33.6382V19.9438ZM60.0494 22.4043V50.1325C60.0521 50.8274 60.6175 51.3883 61.3123 51.3856C62.0033 51.3829 62.5627 50.8235 62.5654 50.1325V22.7975C65.4965 23.7916 67.6 26.5582 67.6 29.8419C67.6 35.6551 67.6 41.4691 67.6 47.2823C67.6 51.4897 64.2466 54.8899 60.0395 54.9435L58.6095 54.9624C58.003 54.9661 57.5333 54.5073 57.5333 53.9034V23.6297C57.5333 22.9212 58.0116 22.4385 58.6365 22.4306L60.0494 22.4043ZM3.43825 24.9784C4.14793 24.9784 4.70118 25.5219 4.70118 26.2316V48.8712C4.70118 49.5808 4.14793 50.134 3.43825 50.134C2.72855 50.134 2.18513 49.5808 2.18514 48.8712V26.2316C2.18513 25.5219 2.72855 24.9784 3.43825 24.9784ZM22.3086 24.9784H31.1222C31.1222 26.353 32.2635 27.4945 33.6382 27.4945H41.179C42.5537 27.4945 43.695 26.353 43.695 24.9784H55.0246V52.6525H22.3086V50.134C23.0073 50.1368 23.5743 49.5698 23.5716 48.8712C23.5688 48.1763 23.0034 47.6153 22.3086 47.618V45.1019C23.0034 45.1046 23.5688 44.5436 23.5716 43.8488C23.5743 43.1502 23.0072 42.5832 22.3086 42.5859V40.0673C23.0034 40.07 23.5688 39.5091 23.5716 38.8143C23.5743 38.1156 23.0072 37.5487 22.3086 37.5514V35.0353C23.0034 35.038 23.5688 34.477 23.5716 33.7822C23.5756 33.0826 23.0082 32.514 22.3086 32.5168V30.0007C23.0034 30.0035 23.5688 29.4425 23.5716 28.7477C23.5688 28.0528 23.0034 27.4918 22.3086 27.4945V24.9784ZM51.2432 27.4871C50.5474 27.4885 49.9849 28.0543 49.9876 28.7501C49.9903 29.442 50.5513 30.0018 51.2432 30.0032C51.938 30.0059 52.5034 29.4449 52.5061 28.7501C52.5089 28.0515 51.9418 27.4844 51.2432 27.4871ZM17.2765 27.4896C16.5808 27.491 16.0183 28.0568 16.021 28.7525C16.0237 29.4444 16.5846 30.0042 17.2765 30.0056C17.9713 30.0083 18.5367 29.4473 18.5395 28.7525C18.5422 28.0539 17.9751 27.4869 17.2765 27.4896ZM29.8592 30.0007C29.1635 30.0021 28.6009 30.568 28.6037 31.2637C28.6064 31.9556 29.1673 32.5155 29.8592 32.5168H44.958C45.6489 32.5141 46.2084 31.9547 46.2111 31.2637C46.2138 30.5689 45.6528 30.0035 44.958 30.0007H29.8592ZM70.116 30.5118H71.379C72.0887 30.5118 72.6321 31.0552 72.6321 31.7649V45.6032C72.6321 46.3129 72.0887 46.866 71.379 46.866H70.116V30.5118ZM7.21723 32.5168H9.73328V42.5859H7.21723V32.5168ZM29.8592 36.2983C29.1673 36.2996 28.6064 36.8595 28.6037 37.5514C28.601 38.2471 29.1635 38.8129 29.8592 38.8143H44.958C45.6528 38.8116 46.2138 38.2461 46.2111 37.5514C46.2084 36.8604 45.6489 36.301 44.958 36.2983H29.8592ZM51.2432 37.5514C50.5474 37.5527 49.9849 38.1186 49.9876 38.8143C49.989 39.5071 50.5503 40.0685 51.2432 40.0699C51.9389 40.0726 52.5048 39.51 52.5061 38.8143C52.5088 38.1156 51.9418 37.5486 51.2432 37.5514ZM17.2765 37.5538C16.5808 37.5552 16.0182 38.1209 16.021 38.8167C16.0237 39.5086 16.5846 40.0685 17.2765 40.0699C17.9713 40.0726 18.5367 39.5115 18.5395 38.8167C18.5422 38.1181 17.9752 37.551 17.2765 37.5538ZM29.8592 41.3303C29.1663 41.3316 28.605 41.8931 28.6037 42.5859C28.601 43.2816 29.1635 43.8475 29.8592 43.8488H44.958C45.6528 43.8461 46.2138 43.2807 46.2111 42.5859C46.2098 41.894 45.6499 41.333 44.958 41.3303H29.8592ZM17.2765 47.618C16.5808 47.6194 16.0182 48.1852 16.021 48.881C16.0237 49.5729 16.5846 50.1327 17.2765 50.134C17.9713 50.1368 18.5367 49.5758 18.5395 48.881C18.5422 48.1824 17.9752 47.6152 17.2765 47.618ZM29.8592 47.618C29.1673 47.6193 28.6064 48.1792 28.6037 48.8712C28.6009 49.5669 29.1635 50.1327 29.8592 50.134H44.958C45.6528 50.1314 46.2138 49.5659 46.2111 48.8712C46.2084 48.1802 45.6489 47.6207 44.958 47.618H29.8592ZM51.2432 47.618C50.5474 47.6194 49.9849 48.1852 49.9876 48.881C49.9903 49.5729 50.5513 50.1327 51.2432 50.134C51.938 50.1368 52.5034 49.5758 52.5061 48.881C52.5089 48.1824 51.9418 47.6152 51.2432 47.618ZM55.2581 55.1686C55.7784 56.5261 57.1074 57.4976 58.6365 57.4806L60.0494 57.4618V60.2014H24.8247C24.1327 60.2042 23.5729 60.7651 23.5716 61.457C23.5689 62.1518 24.1299 62.7172 24.8247 62.7199H60.2754C60.8022 64.1768 62.2019 65.236 63.8284 65.236H73.895C74.6047 65.236 75.1481 65.7794 75.1481 66.4891V67.7423C75.1481 68.4519 74.6047 69.0051 73.895 69.0051H3.43825C2.72855 69.0051 2.18513 68.4519 2.18514 67.7423V66.4891C2.18513 65.7794 2.72855 65.236 3.43825 65.236H13.5049C15.1313 65.236 16.531 64.1768 17.0578 62.7199H19.7926C20.4912 62.7227 21.0582 62.1557 21.0555 61.457C21.0542 60.7613 20.4883 60.1987 19.7926 60.2014H17.2839V57.6854H18.537C20.1646 57.6854 21.564 56.6277 22.0875 55.1693L55.2581 55.1686Z" fill="white"/>
</g>
<defs>
<clipPath id="clip0_52_369">
<rect width="78" height="72" fill="white"/>
</clipPath>
</defs>
</svg>
