<svg width="82" height="66" viewBox="0 0 82 66" fill="none" xmlns="http://www.w3.org/2000/svg">
<g clip-path="url(#clip0_52_351)">
<path d="M81.7479 37.1804C81.7116 36.2675 81.3332 35.4017 80.6879 34.7549C80.0427 34.1081 79.1777 33.7278 78.2649 33.6894C68.4649 33.2392 57.9232 33.133 47.6906 33.3668C47.6946 32.7743 47.7188 32.1951 47.7188 31.5998C47.7347 22.089 47.1728 12.5859 46.0364 3.14322C45.968 2.58117 45.7128 2.05838 45.3117 1.65874C44.9106 1.25911 44.3869 1.0058 43.8246 0.939474C30.5637 -0.599901 17.1693 -0.599901 3.90849 0.939474C3.34643 1.00608 2.82302 1.25951 2.42219 1.65912C2.02136 2.05873 1.76634 2.58137 1.69802 3.14322C0.561494 12.5864 -0.000332037 22.0899 0.0156469 31.6012C-0.015296 42.0747 0.672979 52.538 2.07562 62.9173C2.15363 63.4753 2.41428 63.9919 2.81686 64.3862C3.21944 64.7805 3.74128 65.0304 4.30087 65.0968C10.7954 65.8527 17.3288 66.2264 23.8672 66.2162C30.2992 66.224 36.7263 65.8606 43.1164 65.1277L43.1366 65.1331C48.0171 65.2984 53.0629 65.383 58.1328 65.383C64.9725 65.383 71.7047 65.2312 78.1413 64.9329C79.0466 64.8927 79.9045 64.5169 80.5479 63.8788C81.1913 63.2406 81.5741 62.3857 81.6216 61.4808C82.0595 53.388 82.1016 45.2773 81.7479 37.1804ZM4.7228 62.4389C3.34777 52.2172 2.67298 41.9135 2.70315 31.5998C2.68771 22.2401 3.23786 12.8881 4.35058 3.59472C17.3187 2.09884 30.4157 2.09884 43.3838 3.59472C44.4965 12.8881 45.0467 22.2401 45.0313 31.5998C45.0615 41.9135 44.3867 52.2172 43.0116 62.4389C30.2895 63.8823 17.4449 63.8823 4.7228 62.4389ZM78.9395 61.3316C78.9264 61.5713 78.8246 61.7976 78.654 61.9665C78.4834 62.1353 78.2561 62.2347 78.0163 62.2454C71.6214 62.5423 64.9322 62.6942 58.1328 62.6942C53.9417 62.6942 49.7814 62.6297 45.7058 62.5155C46.8724 53.7409 47.5208 44.9052 47.6476 36.0543C57.8547 35.8192 68.3682 35.9254 78.1426 36.3742C78.3838 36.3847 78.6122 36.4855 78.7827 36.6564C78.9531 36.8274 79.0532 37.0561 79.0631 37.2973C79.412 45.306 79.3707 53.3269 78.9395 61.3316ZM74.6771 41.6376L74.6368 40.2979C74.6346 40.2316 74.6456 40.1656 74.669 40.1035C74.6925 40.0415 74.7279 39.9847 74.7734 39.9363C74.8188 39.888 74.8733 39.8492 74.9338 39.822C74.9943 39.7948 75.0596 39.7798 75.1259 39.7779C75.258 39.7786 75.3849 39.8293 75.4811 39.9198C75.5774 40.0103 75.6358 40.1339 75.6446 40.2657L75.6849 41.6108C75.6881 41.7445 75.6382 41.8742 75.546 41.9711C75.4538 42.0681 75.3269 42.1246 75.1931 42.1281H75.1796C75.0485 42.1278 74.9227 42.0764 74.8289 41.9848C74.735 41.8932 74.6806 41.7687 74.6771 41.6376ZM75.7494 51.0909C75.7395 51.8837 75.7261 52.6738 75.7091 53.4613C75.7059 53.5931 75.6513 53.7183 75.5568 53.8103C75.4624 53.9022 75.3356 53.9535 75.2038 53.9531H75.1917C75.1256 53.9515 75.0603 53.9369 74.9998 53.9102C74.9393 53.8834 74.8846 53.8449 74.8389 53.797C74.7933 53.7491 74.7575 53.6926 74.7336 53.6309C74.7098 53.5691 74.6983 53.5033 74.6999 53.4371C74.7178 52.6541 74.7317 51.8676 74.7416 51.0775C74.7434 50.945 74.7972 50.8185 74.8915 50.7255C74.9858 50.6324 75.113 50.5803 75.2455 50.5803H75.2522C75.3184 50.5812 75.3837 50.5951 75.4445 50.6212C75.5053 50.6473 75.5604 50.6852 75.6066 50.7326C75.6527 50.78 75.6891 50.8361 75.7136 50.8976C75.7381 50.959 75.7503 51.0247 75.7494 51.0909ZM75.7521 45.165C75.7628 45.9587 75.7687 46.7488 75.7696 47.5353C75.7697 47.6015 75.7569 47.6671 75.7317 47.7283C75.7065 47.7895 75.6696 47.8451 75.6229 47.8921C75.5762 47.939 75.5208 47.9762 75.4597 48.0017C75.3987 48.0272 75.3332 48.0404 75.267 48.0406C75.2009 48.0408 75.134 48.0279 75.0729 48.0027C75.0118 47.9776 74.9562 47.9406 74.9094 47.8939C74.8626 47.8472 74.8255 47.7917 74.8001 47.7307C74.7748 47.6696 74.7617 47.6041 74.7617 47.538C74.7604 46.7546 74.755 45.9699 74.7443 45.1784C74.7434 45.1122 74.7555 45.0465 74.78 44.9851C74.8046 44.9236 74.8409 44.8675 74.8871 44.8201C74.9333 44.7727 74.9883 44.7348 75.0491 44.7087C75.1099 44.6826 75.1753 44.6687 75.2415 44.6678H75.2482C75.3807 44.6678 75.5078 44.7199 75.6021 44.813C75.6964 44.906 75.7503 45.0325 75.7521 45.165ZM75.6056 57.0168L75.5519 58.3606C75.546 58.4901 75.4906 58.6125 75.397 58.7023C75.3035 58.7921 75.179 58.8424 75.0493 58.843H75.0278C74.894 58.8374 74.7679 58.7789 74.6772 58.6804C74.5865 58.5819 74.5386 58.4514 74.5441 58.3176L74.5978 56.9765C74.5995 56.9101 74.6145 56.8446 74.642 56.784C74.6694 56.7235 74.7087 56.669 74.7576 56.6239C74.8065 56.5788 74.8639 56.544 74.9264 56.5214C74.989 56.4989 75.0555 56.4892 75.1219 56.4928C75.1881 56.4954 75.2531 56.511 75.3132 56.5388C75.3734 56.5665 75.4275 56.6058 75.4724 56.6545C75.5173 56.7032 75.5522 56.7602 75.5751 56.8224C75.5979 56.8846 75.6083 56.9507 75.6056 57.0168ZM12.1054 59.0929C12.0784 59.4295 11.9257 59.7435 11.6777 59.9725C11.4297 60.2016 11.1046 60.3289 10.767 60.3292L10.6581 60.3252C9.71842 60.249 8.78227 60.1657 7.84971 60.0752C7.67104 60.0621 7.4968 60.0134 7.33723 59.9319C7.17767 59.8504 7.03601 59.7379 6.92058 59.6009C6.80515 59.4639 6.71828 59.3052 6.66509 59.1341C6.61189 58.963 6.59344 58.783 6.61082 58.6047C6.62821 58.4264 6.68107 58.2534 6.76631 58.0958C6.85154 57.9382 6.96743 57.7993 7.10714 57.6871C7.24686 57.575 7.40759 57.4919 7.57989 57.4428C7.75218 57.3937 7.93255 57.3795 8.1104 57.4012C9.02773 57.4898 9.94865 57.5714 10.8731 57.6457C11.0491 57.6598 11.2205 57.7084 11.3777 57.7888C11.5349 57.8691 11.6746 57.9797 11.7891 58.1141C11.9035 58.2485 11.9903 58.4041 12.0446 58.572C12.0989 58.74 12.1195 58.917 12.1054 59.0929ZM41.7794 7.46607C41.7449 7.79645 41.5893 8.10238 41.3427 8.32492C41.0961 8.54747 40.7759 8.67089 40.4437 8.67141C40.397 8.67134 40.3504 8.66865 40.304 8.66335C38.198 8.44751 36.0879 8.27458 33.9749 8.14466C33.7987 8.13388 33.6263 8.08847 33.4676 8.01104C33.309 7.93361 33.1671 7.82567 33.0502 7.69339C32.9333 7.56111 32.8435 7.40708 32.7862 7.24011C32.7288 7.07314 32.7049 6.8965 32.7158 6.72029C32.7424 6.36631 32.9061 6.03671 33.1722 5.80175C33.4383 5.56679 33.7856 5.44507 34.1402 5.46254C36.3036 5.59691 38.4697 5.77294 40.5808 5.99063C40.9352 6.02724 41.2605 6.20309 41.4853 6.47952C41.7101 6.75594 41.8158 7.11032 41.7794 7.46472V7.46607ZM23.8672 27.027C20.5232 27.027 17.2542 28.0186 14.4737 29.8764C11.6932 31.7342 9.52597 34.3748 8.24614 37.4643C6.9663 40.5537 6.6313 43.9533 7.2835 47.2331C7.93569 50.513 9.5458 53.5257 11.9102 55.8905C14.2746 58.2553 17.2872 59.8659 20.5669 60.5186C23.8466 61.1713 27.2463 60.8369 30.3359 59.5575C33.4256 58.2782 36.0665 56.1114 37.9247 53.3312C39.783 50.551 40.7751 47.2822 40.7756 43.9381C40.771 39.455 38.9881 35.1569 35.8182 31.9867C32.6483 28.8166 28.3503 27.032 23.8672 27.027ZM23.8672 58.1577C21.0545 58.1577 18.305 57.3236 15.9664 55.7609C13.6277 54.1983 11.805 51.9772 10.7287 49.3786C9.65237 46.78 9.37083 43.9206 9.91965 41.1619C10.4685 38.4033 11.823 35.8694 13.812 33.8806C15.8009 31.8918 18.335 30.5375 21.0937 29.989C23.8523 29.4404 26.7117 29.7222 29.3102 30.7988C31.9088 31.8753 34.1297 33.6983 35.6921 36.0371C37.2546 38.3758 38.0884 41.1254 38.0881 43.9381C38.0842 47.7085 36.5847 51.3234 33.9186 53.9895C31.2525 56.6556 27.6376 58.1538 23.8672 58.1577ZM23.8672 32.4034C21.5861 32.4034 19.3563 33.0798 17.4596 34.3471C15.5629 35.6144 14.0847 37.4157 13.2117 39.5231C12.3388 41.6306 12.1104 43.9496 12.5554 46.1868C13.0004 48.4241 14.0989 50.4792 15.7119 52.0921C17.3248 53.7051 19.3799 54.8036 21.6172 55.2486C23.8544 55.6936 26.1734 55.4652 28.2809 54.5923C30.3883 53.7193 32.1896 52.2411 33.4569 50.3444C34.7242 48.4477 35.4006 46.2179 35.4006 43.9368C35.3971 40.879 34.1808 37.9475 32.0186 35.7854C29.8565 33.6232 26.925 32.4069 23.8672 32.4034ZM23.8672 52.7827C22.1177 52.7827 20.4074 52.2639 18.9527 51.2919C17.498 50.3199 16.3642 48.9383 15.6947 47.322C15.0251 45.7056 14.85 43.927 15.1913 42.211C15.5326 40.4951 16.3751 38.9189 17.6122 37.6818C18.8493 36.4447 20.4255 35.6022 22.1415 35.2609C23.8574 34.9195 25.636 35.0947 27.2524 35.7642C28.8688 36.4338 30.2503 37.5676 31.2223 39.0223C32.1943 40.477 32.7131 42.1872 32.7131 43.9368C32.7106 46.2821 31.7779 48.5306 30.1195 50.189C28.4611 51.8474 26.2125 52.7802 23.8672 52.7827ZM60.557 38.6438C58.4478 38.6435 56.386 39.2687 54.6321 40.4402C52.8783 41.6118 51.5113 43.2771 50.7039 45.2256C49.8965 47.1741 49.6851 49.3182 50.0963 51.3869C50.5075 53.4555 51.5229 55.3558 53.0141 56.8474C54.5053 58.339 56.4053 59.3549 58.4739 59.7666C60.5424 60.1783 62.6866 59.9674 64.6353 59.1605C66.584 58.3536 68.2497 56.987 69.4217 55.2335C70.5937 53.4799 71.2193 51.4182 71.2196 49.3091C71.2168 46.4818 70.0926 43.7711 68.0936 41.7717C66.0947 39.7722 63.3842 38.6473 60.557 38.6438ZM60.557 57.2843C58.9792 57.2845 57.4369 56.8169 56.125 55.9405C54.813 55.0642 53.7904 53.8184 53.1865 52.3608C52.5827 50.9033 52.4246 49.2994 52.7323 47.7519C53.0401 46.2045 53.7998 44.7831 54.9154 43.6675C56.031 42.5519 57.4524 41.7922 58.9998 41.4845C60.5472 41.1767 62.1511 41.3348 63.6087 41.9387C65.0663 42.5426 66.312 43.5652 67.1884 44.8771C68.0648 46.189 68.5324 47.7314 68.5321 49.3091C68.5293 51.4234 67.6881 53.4502 66.1931 54.9452C64.6981 56.4403 62.6712 57.2814 60.557 57.2843ZM23.8672 21.8684C25.5206 21.8686 27.137 21.3786 28.5118 20.4602C29.8867 19.5418 30.9584 18.2363 31.5913 16.7089C32.2242 15.1814 32.39 13.5006 32.0676 11.8789C31.7452 10.2572 30.9491 8.76758 29.7801 7.59835C28.611 6.42912 27.1215 5.63283 25.4999 5.31017C23.8783 4.98751 22.1974 5.15297 20.6698 5.78564C19.1423 6.41831 17.8366 7.48976 16.918 8.8645C15.9994 10.2392 15.5091 11.8555 15.5091 13.5089C15.5119 15.7248 16.3934 17.849 17.9603 19.4159C19.5271 20.9827 21.6514 21.8655 23.8672 21.8684ZM23.8672 7.83694C24.9891 7.83668 26.0859 8.16914 27.0189 8.79228C27.9518 9.41542 28.679 10.3013 29.1085 11.3377C29.538 12.3742 29.6504 13.5147 29.4316 14.6151C29.2128 15.7155 28.6726 16.7263 27.8792 17.5196C27.0859 18.3129 26.0751 18.8531 24.9748 19.072C23.8744 19.2908 22.7338 19.1783 21.6974 18.7489C20.6609 18.3194 19.7751 17.5922 19.1519 16.6592C18.5288 15.7263 18.1963 14.6295 18.1966 13.5076C18.1987 12.0043 18.7968 10.5632 19.8598 9.50019C20.9228 8.4372 22.3639 7.83908 23.8672 7.83694ZM9.6463 12.9499C10.4428 12.9496 11.2212 12.7132 11.8833 12.2706C12.5454 11.8279 13.0614 11.1988 13.366 10.4629C13.6706 9.72701 13.7502 8.91731 13.5946 8.1362C13.4391 7.35508 13.0554 6.63763 12.4922 6.07455C11.9289 5.51146 11.2113 5.12804 10.4301 4.97276C9.64897 4.81748 8.8393 4.89731 8.1035 5.20216C7.3677 5.50701 6.73881 6.02319 6.29636 6.68543C5.8539 7.34767 5.61774 8.12624 5.61774 8.92269C5.61881 9.99068 6.04363 11.0146 6.79894 11.7697C7.55425 12.5247 8.57831 12.9492 9.6463 12.9499ZM9.6463 7.58163C9.91116 7.5819 10.17 7.66066 10.3901 7.80797C10.6102 7.95529 10.7817 8.16454 10.883 8.40928C10.9842 8.65403 11.0106 8.92329 10.9589 9.18304C10.9071 9.4428 10.7796 9.68139 10.5923 9.86867C10.405 10.056 10.1664 10.1835 9.90665 10.2353C9.6469 10.287 9.37764 10.2606 9.13289 10.1593C8.88814 10.0581 8.6789 9.8866 8.53158 9.66649C8.38427 9.44638 8.30551 9.18755 8.30524 8.92269C8.30524 8.56702 8.44653 8.22592 8.69803 7.97442C8.94953 7.72292 9.29063 7.58163 9.6463 7.58163Z" fill="white"/>
</g>
<defs>
<clipPath id="clip0_52_351">
<rect width="82" height="66" fill="white"/>
</clipPath>
</defs>
</svg>
